# 3ds Max Wavefront OBJ Exporter v0.97b - (c)2007 guruware
# File Created: 30.11.2015 22:20:45

mtllib 3d-model.mtl

#
# object Group_001
#

v  -30.1904 23.4902 -1.2795
v  -30.1904 23.4902 1.2795
v  -31.2703 31.6929 1.2795
v  -31.2703 31.6929 -1.2795
v  27.8695 15.8465 1.2795
v  27.8695 15.8465 -1.2795
v  31.0356 23.4902 -1.2795
v  31.0356 23.4902 1.2795
v  22.8329 9.2826 1.2795
v  22.8329 9.2826 -1.2795
v  -27.8451 31.6929 1.2795
v  -27.0242 15.8465 1.2795
v  -26.8819 24.3767 1.2795
v  -21.9876 9.2826 1.2795
v  -24.0579 17.5591 1.2795
v  -19.5657 11.7046 1.2795
v  -15.4238 4.2460 1.2795
v  -13.7112 7.2124 1.2795
v  -7.7801 1.0799 1.2795
v  -6.8936 4.3884 1.2795
v  0.4226 -0.0000 1.2795
v  0.4226 3.4252 1.2795
v  7.7389 4.3884 1.2795
v  8.6254 1.0799 1.2795
v  14.5565 7.2124 1.2795
v  16.2691 4.2460 1.2795
v  20.4109 11.7046 1.2795
v  24.9032 17.5591 1.2795
v  27.7271 24.3767 1.2795
v  27.7821 24.7943 1.2795
v  28.4197 29.6368 1.2795
v  7.6020 29.6368 1.2795
v  -4.4564 31.6163 1.2795
v  -13.0279 24.7943 1.2795
v  16.1381 37.2190 1.2795
v  -27.1176 37.2190 1.2795
v  -27.0242 47.5394 1.2795
v  -30.1904 39.8956 1.2795
v  -30.5428 37.2190 1.2795
v  -42.6453 31.6163 1.2795
v  -42.7595 37.2190 1.2795
v  -26.8819 39.0091 1.2795
v  -21.9876 54.1032 1.2795
v  -24.0579 45.8268 1.2795
v  -19.5657 51.6812 1.2795
v  -15.4238 59.1398 1.2795
v  -13.7112 56.1735 1.2795
v  -7.7801 62.3059 1.2795
v  -6.8936 58.9974 1.2795
v  0.4226 63.3858 1.2795
v  0.4226 59.9606 1.2795
v  7.7389 58.9974 1.2795
v  8.6254 62.3059 1.2795
v  14.5565 56.1735 1.2795
v  16.2691 59.1398 1.2795
v  20.4109 51.6812 1.2795
v  22.8329 54.1032 1.2795
v  24.9032 45.8268 1.2795
v  27.8695 47.5394 1.2795
v  27.7271 39.0091 1.2795
v  28.6904 31.6929 1.2795
v  31.0356 39.8956 1.2795
v  31.2073 24.7943 1.2795
v  32.1155 31.6929 1.2795
v  31.8449 29.6368 1.2795
v  42.7595 24.7943 1.2795
v  42.7595 29.6368 1.2795
v  -4.4564 31.6163 -1.2795
v  -27.8451 31.6929 -1.2795
v  -27.1176 37.2190 -1.2795
v  16.1381 37.2190 -1.2795
v  7.6020 29.6368 -1.2795
v  27.7821 24.7943 -1.2795
v  -13.0279 24.7943 -1.2795
v  28.4197 29.6368 -1.2795
v  28.6904 31.6929 -1.2795
v  31.0356 39.8956 -1.2795
v  27.8695 47.5394 -1.2795
v  27.7271 39.0091 -1.2795
v  24.9032 45.8268 -1.2795
v  22.8329 54.1032 -1.2795
v  20.4109 51.6812 -1.2795
v  16.2691 59.1398 -1.2795
v  14.5565 56.1735 -1.2795
v  8.6254 62.3059 -1.2795
v  7.7389 58.9974 -1.2795
v  0.4226 59.9606 -1.2795
v  0.4226 63.3858 -1.2795
v  -6.8936 58.9974 -1.2795
v  -7.7801 62.3059 -1.2795
v  -13.7112 56.1735 -1.2795
v  -15.4238 59.1398 -1.2795
v  -19.5657 51.6812 -1.2795
v  -21.9876 54.1032 -1.2795
v  -24.0579 45.8268 -1.2795
v  -26.8819 39.0091 -1.2795
v  -27.0242 47.5394 -1.2795
v  -30.1904 39.8956 -1.2795
v  -30.5428 37.2190 -1.2795
v  -42.6453 31.6163 -1.2795
v  -42.7595 37.2190 -1.2795
v  -27.0242 15.8465 -1.2795
v  -26.8819 24.3767 -1.2795
v  -21.9876 9.2826 -1.2795
v  -24.0579 17.5591 -1.2795
v  -19.5657 11.7046 -1.2795
v  -15.4238 4.2460 -1.2795
v  -13.7112 7.2124 -1.2795
v  -7.7801 1.0799 -1.2795
v  -6.8936 4.3884 -1.2795
v  0.4226 0.0000 -1.2795
v  0.4226 3.4252 -1.2795
v  7.7389 4.3884 -1.2795
v  8.6254 1.0799 -1.2795
v  14.5565 7.2124 -1.2795
v  16.2691 4.2460 -1.2795
v  20.4109 11.7046 -1.2795
v  24.9032 17.5591 -1.2795
v  27.7271 24.3767 -1.2795
v  31.2073 24.7943 -1.2795
v  32.1155 31.6929 -1.2795
v  31.8449 29.6368 -1.2795
v  42.7595 24.7943 -1.2795
v  42.7595 29.6368 -1.2795
# 124 vertices

vn -0.9659 -0.2588 -0.0000
vn -0.9914 -0.1305 -0.0000
vn 0.8660 -0.5000 -0.0000
vn 0.9659 -0.2588 -0.0000
vn 0.7071 -0.7071 -0.0000
vn 0.0000 -0.0000 1.0000
vn 0.0000 0.0000 -1.0000
vn 0.5000 -0.8660 -0.0000
vn 0.2588 -0.9659 -0.0000
vn 0.0000 -1.0000 -0.0000
vn -0.2588 -0.9659 -0.0000
vn -0.5000 -0.8660 -0.0000
vn -0.7071 -0.7071 -0.0000
vn -0.8660 -0.5000 -0.0000
vn 0.9914 -0.1305 -0.0000
vn 0.0000 1.0000 0.0000
vn 0.6641 -0.7476 -0.0000
vn -0.9914 0.1305 0.0000
vn -1.0000 0.0000 0.0000
vn 0.0067 -1.0000 -0.0000
vn -0.9998 -0.0204 -0.0000
vn -0.9659 0.2588 0.0000
vn -0.8660 0.5000 0.0000
vn -0.7071 0.7071 0.0000
vn -0.5000 0.8660 0.0000
vn -0.2588 0.9659 0.0000
vn 0.2588 0.9659 0.0000
vn 0.5000 0.8660 0.0000
vn 0.7071 0.7071 0.0000
vn 0.8660 0.5000 0.0000
vn 0.9659 0.2588 0.0000
vn 1.0000 0.0000 0.0000
vn -0.0033 -1.0000 -0.0000
vn 0.9914 0.1305 0.0000
vn -0.6227 0.7824 0.0000
# 35 vertex normals

vt 0.0000 0.0000 0.0000
# 1 texture coords

g Group_001
usemtl Material1
s off
f 1/1/1 2/1/1 3/1/2 4/1/2 
f 5/1/3 6/1/3 7/1/4 8/1/4 
f 9/1/5 10/1/5 6/1/3 5/1/3 
f 11/1/6 2/1/6 12/1/6 13/1/6 
f 13/1/6 12/1/6 14/1/6 15/1/6 
f 16/1/6 15/1/6 14/1/6 17/1/6 
f 18/1/6 16/1/6 17/1/6 19/1/6 
f 20/1/6 18/1/6 19/1/6 21/1/6 
f 22/1/6 20/1/6 21/1/6 23/1/6 
f 23/1/6 21/1/6 24/1/6 25/1/6 
f 25/1/6 24/1/6 26/1/6 27/1/6 
f 27/1/6 26/1/6 9/1/6 28/1/6 
f 28/1/6 9/1/6 5/1/6 29/1/6 
f 30/1/6 29/1/6 5/1/6 31/1/6 
f 30/1/6 31/1/6 32/1/6 33/1/6 
f 30/1/6 33/1/6 34/1/6 
f 33/1/6 32/1/6 35/1/6 36/1/6 
f 11/1/6 33/1/6 36/1/6 37/1/6 
f 2/1/6 11/1/6 37/1/6 38/1/6 
f 2/1/6 38/1/6 39/1/6 3/1/6 
f 40/1/6 3/1/6 39/1/6 41/1/6 
f 37/1/6 36/1/6 42/1/6 43/1/6 
f 43/1/6 42/1/6 44/1/6 45/1/6 
f 46/1/6 43/1/6 45/1/6 47/1/6 
f 48/1/6 46/1/6 47/1/6 49/1/6 
f 50/1/6 48/1/6 49/1/6 51/1/6 
f 50/1/6 51/1/6 52/1/6 53/1/6 
f 53/1/6 52/1/6 54/1/6 55/1/6 
f 55/1/6 54/1/6 56/1/6 57/1/6 
f 57/1/6 56/1/6 58/1/6 59/1/6 
f 59/1/6 58/1/6 60/1/6 61/1/6 
f 62/1/6 59/1/6 61/1/6 8/1/6 
f 8/1/6 61/1/6 31/1/6 5/1/6 
f 62/1/6 8/1/6 63/1/6 64/1/6 
f 65/1/6 64/1/6 63/1/6 66/1/6 
f 65/1/6 66/1/6 67/1/6 
f 68/1/7 69/1/7 70/1/7 71/1/7 
f 68/1/7 71/1/7 72/1/7 73/1/7 
f 68/1/7 73/1/7 74/1/7 
f 73/1/7 72/1/7 75/1/7 6/1/7 
f 7/1/7 6/1/7 75/1/7 76/1/7 
f 77/1/7 7/1/7 76/1/7 78/1/7 
f 78/1/7 76/1/7 79/1/7 80/1/7 
f 81/1/7 78/1/7 80/1/7 82/1/7 
f 83/1/7 81/1/7 82/1/7 84/1/7 
f 85/1/7 83/1/7 84/1/7 86/1/7 
f 85/1/7 86/1/7 87/1/7 88/1/7 
f 88/1/7 87/1/7 89/1/7 90/1/7 
f 90/1/7 89/1/7 91/1/7 92/1/7 
f 92/1/7 91/1/7 93/1/7 94/1/7 
f 94/1/7 93/1/7 95/1/7 96/1/7 
f 97/1/7 94/1/7 96/1/7 70/1/7 
f 97/1/7 70/1/7 69/1/7 1/1/7 
f 98/1/7 97/1/7 1/1/7 99/1/7 
f 99/1/7 1/1/7 4/1/7 100/1/7 
f 99/1/7 100/1/7 101/1/7 
f 102/1/7 1/1/7 69/1/7 103/1/7 
f 104/1/7 102/1/7 103/1/7 105/1/7 
f 104/1/7 105/1/7 106/1/7 107/1/7 
f 107/1/7 106/1/7 108/1/7 109/1/7 
f 109/1/7 108/1/7 110/1/7 111/1/7 
f 111/1/7 110/1/7 112/1/7 113/1/7 
f 114/1/7 111/1/7 113/1/7 115/1/7 
f 116/1/7 114/1/7 115/1/7 117/1/7 
f 10/1/7 116/1/7 117/1/7 118/1/7 
f 6/1/7 10/1/7 118/1/7 119/1/7 
f 6/1/7 119/1/7 73/1/7 
f 120/1/7 7/1/7 77/1/7 121/1/7 
f 120/1/7 121/1/7 122/1/7 123/1/7 
f 123/1/7 122/1/7 124/1/7 
f 116/1/8 10/1/5 9/1/5 26/1/8 
f 114/1/9 116/1/8 26/1/8 24/1/9 
f 111/1/10 114/1/9 24/1/9 21/1/10 
f 109/1/11 111/1/10 21/1/10 19/1/11 
f 107/1/12 109/1/11 19/1/11 17/1/12 
f 104/1/13 107/1/12 17/1/12 14/1/13 
f 104/1/13 14/1/13 12/1/14 102/1/14 
f 102/1/14 12/1/14 2/1/1 1/1/1 
f 36/1/15 70/1/15 96/1/4 42/1/4 
f 71/1/16 70/1/16 36/1/16 35/1/16 
f 72/1/17 71/1/17 35/1/17 32/1/17 
f 75/1/16 72/1/16 32/1/16 31/1/16 
f 75/1/18 31/1/18 61/1/19 76/1/19 
f 76/1/19 61/1/19 60/1/1 79/1/1 
f 79/1/1 60/1/1 58/1/14 80/1/14 
f 80/1/14 58/1/14 56/1/13 82/1/13 
f 84/1/12 82/1/13 56/1/13 54/1/12 
f 86/1/11 84/1/12 54/1/12 52/1/11 
f 87/1/10 86/1/11 52/1/11 51/1/10 
f 89/1/9 87/1/10 51/1/10 49/1/9 
f 100/1/20 4/1/20 3/1/20 40/1/20 
f 100/1/21 40/1/21 41/1/21 101/1/21 
f 99/1/16 101/1/16 41/1/16 39/1/16 
f 99/1/18 39/1/18 38/1/22 98/1/22 
f 98/1/22 38/1/22 37/1/23 97/1/23 
f 97/1/23 37/1/23 43/1/24 94/1/24 
f 92/1/25 94/1/24 43/1/24 46/1/25 
f 90/1/26 92/1/25 46/1/25 48/1/26 
f 88/1/16 90/1/26 48/1/26 50/1/16 
f 85/1/27 88/1/16 50/1/16 53/1/27 
f 83/1/28 85/1/27 53/1/27 55/1/28 
f 81/1/29 83/1/28 55/1/28 57/1/29 
f 59/1/30 78/1/30 81/1/29 57/1/29 
f 62/1/31 77/1/31 78/1/30 59/1/30 
f 64/1/32 121/1/32 77/1/31 62/1/31 
f 65/1/15 122/1/15 121/1/32 64/1/32 
f 124/1/16 122/1/16 65/1/16 67/1/16 
f 66/1/32 123/1/32 124/1/32 67/1/32 
f 120/1/10 123/1/10 66/1/10 63/1/10 
f 8/1/4 7/1/4 120/1/15 63/1/15 
f 44/1/3 95/1/3 93/1/5 45/1/5 
f 42/1/4 96/1/4 95/1/3 44/1/3 
f 91/1/8 89/1/9 49/1/9 47/1/8 
f 93/1/5 91/1/8 47/1/8 45/1/5 
f 69/1/33 68/1/33 33/1/33 11/1/33 
f 13/1/31 103/1/31 69/1/34 11/1/34 
f 15/1/30 105/1/30 103/1/31 13/1/31 
f 16/1/29 106/1/29 105/1/30 15/1/30 
f 108/1/28 106/1/29 16/1/29 18/1/28 
f 110/1/27 108/1/28 18/1/28 20/1/27 
f 112/1/16 110/1/27 20/1/27 22/1/16 
f 113/1/26 112/1/16 22/1/16 23/1/26 
f 115/1/25 113/1/26 23/1/26 25/1/25 
f 117/1/24 115/1/25 25/1/25 27/1/24 
f 117/1/24 27/1/24 28/1/23 118/1/23 
f 118/1/23 28/1/23 29/1/22 119/1/22 
f 119/1/22 29/1/22 30/1/18 73/1/18 
f 74/1/10 73/1/10 30/1/10 34/1/10 
f 68/1/35 74/1/35 34/1/35 33/1/35 
# 123 polygons - 6 triangles

