# Blender v2.82 (sub 7) OBJ File: 'export_001.blend'
# www.blender.org
o SchoolBagShelves
v -0.921739 0.000000 0.185880
v 0.921739 0.000000 0.185880
v -0.921739 0.000000 -0.185880
v 0.921739 0.000000 -0.185880
v -0.921739 0.050000 0.210887
v 0.921739 0.050000 -0.185880
v -0.921739 0.050000 -0.185880
v 0.921739 0.035387 0.185880
v -0.921739 0.035387 0.185880
v 0.921739 0.050000 0.210887
v 0.921739 0.035387 0.210887
v -0.921739 0.035387 0.210887
v -0.547826 1.065260 0.210887
v -0.573913 1.065260 0.210887
v -0.573913 1.065260 -0.185113
v -0.547826 1.065260 -0.185113
v -0.573913 0.750000 -0.183784
v -0.573913 0.735260 -0.183784
v -0.921739 0.750000 -0.183784
v -0.921739 0.735260 -0.183784
v -0.573913 0.750000 0.196757
v -0.573913 0.735260 0.196757
v -0.921739 0.750000 0.196757
v -0.921739 0.735260 0.196757
v -0.573913 0.400000 -0.183784
v -0.573913 0.385260 -0.183784
v -0.921739 0.400000 -0.183784
v -0.921739 0.385260 -0.183784
v -0.573913 0.400000 0.196757
v -0.573913 0.385260 0.196757
v -0.921739 0.400000 0.196757
v -0.921739 0.385260 0.196757
v -0.547826 0.050000 0.210887
v -0.573913 0.050000 0.210887
v -0.573913 0.050000 -0.185113
v -0.547826 0.050000 -0.185113
v -0.173913 1.065260 0.210887
v -0.200000 1.065260 0.210887
v -0.200000 1.065260 -0.185113
v -0.173913 1.065260 -0.185113
v -0.200000 0.750000 -0.183784
v -0.200000 0.735260 -0.183784
v -0.547826 0.750000 -0.183784
v -0.547826 0.735260 -0.183784
v -0.200000 0.750000 0.196757
v -0.200000 0.735260 0.196757
v -0.547826 0.750000 0.196757
v -0.547826 0.735260 0.196757
v -0.200000 0.400000 -0.183784
v -0.200000 0.385260 -0.183784
v -0.547826 0.400000 -0.183784
v -0.547826 0.385260 -0.183784
v -0.200000 0.400000 0.196757
v -0.200000 0.385260 0.196757
v -0.547826 0.400000 0.196757
v -0.547826 0.385260 0.196757
v -0.173913 0.050000 0.210887
v -0.200000 0.050000 0.210887
v -0.200000 0.050000 -0.185113
v -0.173913 0.050000 -0.185113
v 0.200000 1.065260 0.210887
v 0.173913 1.065260 0.210887
v 0.173913 1.065260 -0.185113
v 0.200000 1.065260 -0.185113
v 0.173913 0.750000 -0.183784
v 0.173913 0.735260 -0.183784
v -0.173913 0.750000 -0.183784
v -0.173913 0.735260 -0.183784
v 0.173913 0.750000 0.196757
v 0.173913 0.735260 0.196757
v -0.173913 0.750000 0.196757
v -0.173913 0.735260 0.196757
v 0.173913 0.400000 -0.183784
v 0.173913 0.385260 -0.183784
v -0.173913 0.400000 -0.183784
v -0.173913 0.385260 -0.183784
v 0.173913 0.400000 0.196757
v 0.173913 0.385260 0.196757
v -0.173913 0.400000 0.196757
v -0.173913 0.385260 0.196757
v 0.200000 0.050000 0.210887
v 0.173913 0.050000 0.210887
v 0.173913 0.050000 -0.185113
v 0.200000 0.050000 -0.185113
v 0.573913 1.065260 0.210887
v 0.547826 1.065260 0.210887
v 0.547826 1.065260 -0.185113
v 0.573913 1.065260 -0.185113
v 0.547826 0.750000 -0.183784
v 0.547826 0.735260 -0.183784
v 0.200000 0.750000 -0.183784
v 0.200000 0.735260 -0.183784
v 0.547826 0.750000 0.196757
v 0.547826 0.735260 0.196757
v 0.200000 0.750000 0.196757
v 0.200000 0.735260 0.196757
v 0.547826 0.400000 -0.183784
v 0.547826 0.385260 -0.183784
v 0.200000 0.400000 -0.183784
v 0.200000 0.385260 -0.183784
v 0.547826 0.400000 0.196757
v 0.547826 0.385260 0.196757
v 0.200000 0.400000 0.196757
v 0.200000 0.385260 0.196757
v 0.573913 0.050000 0.210887
v 0.547826 0.050000 0.210887
v 0.547826 0.050000 -0.185113
v 0.573913 0.050000 -0.185113
v 0.921739 0.750000 -0.183784
v 0.921739 0.735260 -0.183784
v 0.573913 0.750000 -0.183784
v 0.573913 0.735260 -0.183784
v 0.921739 0.750000 0.196757
v 0.921739 0.735260 0.196757
v 0.573913 0.750000 0.196757
v 0.573913 0.735260 0.196757
v 0.921739 0.400000 -0.183784
v 0.921739 0.385260 -0.183784
v 0.573913 0.400000 -0.183784
v 0.573913 0.385260 -0.183784
v 0.921739 0.400000 0.196757
v 0.921739 0.385260 0.196757
v 0.573913 0.400000 0.196757
v 0.573913 0.385260 0.196757
v 0.947826 0.000000 0.210887
v 0.921739 0.000000 0.210887
v 0.921739 0.000000 -0.187979
v 0.947826 0.000000 -0.187979
v -0.921739 1.065260 0.210887
v -0.921739 0.000000 0.210887
v -0.947826 0.000000 0.210887
v -0.947826 0.000000 -0.187979
v -0.947826 1.079176 0.210887
v -0.921739 0.000000 -0.187979
v -0.947826 1.079176 -0.187979
v -0.921739 1.065260 -0.187979
v -0.947826 1.079176 -0.188002
v 0.947826 1.079176 -0.188002
v -0.947826 -0.000000 -0.188002
v 0.947826 0.000000 -0.188002
v -0.947826 1.079176 -0.190454
v 0.947826 1.079176 -0.190454
v -0.947826 -0.000000 -0.190454
v 0.947826 0.000000 -0.190454
v 0.921739 1.065260 0.210887
v 0.947826 1.079176 0.210887
v 0.947826 1.079176 -0.187979
v 0.921739 1.065260 -0.187979
vt 0.411326 0.372868
vt 0.796044 0.295285
vt 0.411326 0.295285
vt 0.796044 0.372868
vt 0.796044 0.383348
vt 0.411326 0.466150
vt 0.411326 0.383348
vt 0.796044 0.466150
vt 0.796044 0.277419
vt 0.411326 0.284804
vt 0.411326 0.277419
vt 0.796044 0.284804
vt 0.796043 0.248190
vt 0.411326 0.251240
vt 0.411326 0.248190
vt 0.796043 0.251240
vt 0.796044 0.266939
vt 0.411326 0.261720
vt 0.411326 0.266939
vt 0.796044 0.261720
vt 0.868850 0.005240
vt 0.786208 0.217116
vt 0.868850 0.217116
vt 0.786208 0.005240
vt 0.879112 0.547830
vt 0.806524 0.544754
vt 0.879112 0.544754
vt 0.806524 0.547830
vt 0.088309 0.806045
vt 0.160897 0.885461
vt 0.088309 0.885461
vt 0.160897 0.806045
vt 0.243966 0.806045
vt 0.171378 0.885461
vt 0.243966 0.885461
vt 0.171378 0.806045
vt 0.988159 0.507160
vt 0.982715 0.295285
vt 0.988159 0.295285
vt 0.982715 0.507160
vt 0.879112 0.284804
vt 0.806524 0.281728
vt 0.879112 0.281728
vt 0.806524 0.284804
vt 0.879330 0.005240
vt 0.951918 0.084656
vt 0.879330 0.084656
vt 0.951918 0.005240
vt 0.077829 0.806045
vt 0.005240 0.885461
vt 0.077829 0.885461
vt 0.005240 0.806045
vt 0.866457 0.782226
vt 0.783815 0.570351
vt 0.866457 0.570351
vt 0.783815 0.782226
vt 0.773335 0.570351
vt 0.690693 0.782226
vt 0.773335 0.782226
vt 0.690693 0.570351
vt 0.077828 0.934558
vt 0.005240 0.931482
vt 0.077828 0.931482
vt 0.005240 0.934558
vt 0.879330 0.095136
vt 0.951918 0.174552
vt 0.879330 0.174552
vt 0.951918 0.095136
vt 0.816190 0.882603
vt 0.743601 0.962018
vt 0.816190 0.962018
vt 0.743601 0.882603
vt 0.975503 0.782226
vt 0.970059 0.570351
vt 0.975503 0.570351
vt 0.970059 0.782226
vt 0.077829 0.921002
vt 0.005240 0.917926
vt 0.077829 0.917926
vt 0.005240 0.921002
vt 0.879330 0.185032
vt 0.951918 0.264448
vt 0.879330 0.264448
vt 0.951918 0.185032
vt 0.856403 0.792707
vt 0.783815 0.872122
vt 0.856403 0.872122
vt 0.783815 0.792707
vt 0.889166 0.507160
vt 0.806524 0.295285
vt 0.889166 0.295285
vt 0.806524 0.507160
vt 0.493968 0.570351
vt 0.411326 0.782226
vt 0.493968 0.782226
vt 0.411326 0.570351
vt 0.858796 0.230673
vt 0.786208 0.227596
vt 0.858796 0.227596
vt 0.786208 0.230673
vt 0.411326 0.792707
vt 0.483915 0.872122
vt 0.411326 0.872122
vt 0.483915 0.792707
vt 0.753228 0.792707
vt 0.680640 0.872122
vt 0.753228 0.872122
vt 0.680640 0.792707
vt 0.983768 0.217116
vt 0.978324 0.005240
vt 0.983768 0.005240
vt 0.978324 0.217116
vt 0.879112 0.534274
vt 0.806524 0.531198
vt 0.879112 0.531198
vt 0.806524 0.534274
vt 0.494395 0.792707
vt 0.566984 0.872122
vt 0.494395 0.872122
vt 0.566984 0.792707
vt 0.670159 0.792707
vt 0.597571 0.872122
vt 0.670159 0.872122
vt 0.597571 0.792707
vt 0.587090 0.782226
vt 0.504449 0.570351
vt 0.587090 0.570351
vt 0.504449 0.782226
vt 0.680212 0.570351
vt 0.597571 0.782226
vt 0.680212 0.782226
vt 0.597571 0.570351
vt 0.160897 0.921002
vt 0.088309 0.917926
vt 0.160897 0.917926
vt 0.088309 0.921002
vt 0.494395 0.882603
vt 0.566983 0.962018
vt 0.494395 0.962018
vt 0.566983 0.882603
vt 0.939472 0.792707
vt 0.866884 0.872122
vt 0.939472 0.872122
vt 0.866884 0.792707
vt 0.967843 0.217116
vt 0.962399 0.005240
vt 0.967843 0.005240
vt 0.962399 0.217116
vt 0.243966 0.921002
vt 0.171378 0.917926
vt 0.243966 0.917926
vt 0.171378 0.921002
vt 0.826670 0.882603
vt 0.899258 0.962018
vt 0.826670 0.962018
vt 0.899258 0.882603
vt 0.650052 0.882603
vt 0.577464 0.962018
vt 0.650052 0.962018
vt 0.577464 0.882603
vt 0.959579 0.782226
vt 0.876937 0.570351
vt 0.959579 0.570351
vt 0.876937 0.782226
vt 0.682007 0.005240
vt 0.598768 0.227550
vt 0.682007 0.227550
vt 0.598768 0.005240
vt 0.327035 0.921002
vt 0.254447 0.917926
vt 0.327035 0.917926
vt 0.254447 0.921002
vt 0.411326 0.882603
vt 0.483915 0.962018
vt 0.411326 0.962018
vt 0.483915 0.882603
vt 0.733121 0.882603
vt 0.660533 0.962018
vt 0.733121 0.962018
vt 0.660533 0.882603
vt 0.400847 0.005240
vt 0.395403 0.227551
vt 0.395403 0.005240
vt 0.010684 0.227551
vt 0.005240 0.005240
vt 0.010684 0.005240
vt 0.005240 0.230455
vt 0.400847 0.230455
vt 0.879112 0.520717
vt 0.806524 0.517641
vt 0.879112 0.517641
vt 0.806524 0.520717
vt 0.899646 0.295285
vt 0.972234 0.374700
vt 0.899646 0.374700
vt 0.972234 0.295285
vt 0.327035 0.806045
vt 0.254447 0.885461
vt 0.327035 0.885461
vt 0.254447 0.806045
vt 0.588287 0.230454
vt 0.505048 0.005240
vt 0.588287 0.005240
vt 0.505048 0.230454
vt 0.775728 0.227550
vt 0.692488 0.005240
vt 0.775728 0.005240
vt 0.692488 0.227550
vt 0.494567 0.005240
vt 0.411327 0.230454
vt 0.494567 0.230454
vt 0.411327 0.005240
vt 0.915571 0.468420
vt 0.921015 0.385181
vt 0.915571 0.385181
vt 0.921015 0.468420
vt 0.005240 0.701845
vt 0.400846 0.476630
vt 0.400846 0.701845
vt 0.005240 0.476630
vt 0.400846 0.240936
vt 0.005240 0.466150
vt 0.400846 0.466150
vt 0.005240 0.240936
vt 0.400839 0.907445
vt 0.005240 0.906933
vt 0.400839 0.906933
vt 0.005240 0.907445
vt 0.986496 0.795561
vt 0.985984 0.570351
vt 0.985984 0.795561
vt 0.986496 0.570351
vt 0.005240 0.896453
vt 0.400839 0.895941
vt 0.005240 0.895941
vt 0.400839 0.896453
vt 0.994760 0.005240
vt 0.994248 0.230451
vt 0.994248 0.005240
vt 0.994760 0.230451
vt 0.005240 0.712325
vt 0.400846 0.795565
vt 0.005240 0.795565
vt 0.400846 0.712325
vt 0.411326 0.559870
vt 0.796044 0.476630
vt 0.411326 0.476630
vt 0.796044 0.559870
vt 0.899646 0.385181
vt 0.905090 0.468420
vt 0.905090 0.385181
vt 0.899646 0.468420
vn 0.0000 -1.0000 0.0000
vn 0.0000 1.0000 0.0000
vn 0.0000 0.0000 1.0000
vn -1.0000 0.0000 0.0000
vn 1.0000 0.0000 0.0000
vn -0.0000 0.0000 -1.0000
s 1
f 3/1/1 2/2/1 1/3/1
f 3/1/1 4/4/1 2/2/1
s 2
f 10/5/2 7/6/2 5/7/2
f 10/5/2 6/8/2 7/6/2
s 3
f 2/9/3 9/10/3 1/11/3
f 2/9/3 8/12/3 9/10/3
s 4
f 11/13/3 5/14/3 12/15/3
f 11/13/3 10/16/3 5/14/3
s 5
f 8/17/1 12/18/1 9/19/1
f 8/17/1 11/20/1 12/18/1
s 6
f 35/21/4 14/22/4 15/23/4
f 35/21/4 34/24/4 14/22/4
s 7
f 21/25/3 24/26/3 22/27/3
f 21/25/3 23/28/3 24/26/3
s 8
f 23/29/2 17/30/2 19/31/2
f 23/29/2 21/32/2 17/30/2
s 9
f 22/33/1 20/34/1 18/35/1
f 22/33/1 24/36/1 20/34/1
s 10
f 13/37/3 34/38/3 33/39/3
f 13/37/3 14/40/3 34/38/3
s 11
f 29/41/3 32/42/3 30/43/3
f 29/41/3 31/44/3 32/42/3
s 12
f 31/45/2 25/46/2 27/47/2
f 31/45/2 29/48/2 25/46/2
s 13
f 30/49/1 28/50/1 26/51/1
f 30/49/1 32/52/1 28/50/1
s 14
f 16/53/5 33/54/5 36/55/5
f 16/53/5 13/56/5 33/54/5
s 15
f 59/57/4 38/58/4 39/59/4
f 59/57/4 58/60/4 38/58/4
s 16
f 45/61/3 48/62/3 46/63/3
f 45/61/3 47/64/3 48/62/3
s 17
f 47/65/2 41/66/2 43/67/2
f 47/65/2 45/68/2 41/66/2
s 18
f 46/69/1 44/70/1 42/71/1
f 46/69/1 48/72/1 44/70/1
s 19
f 37/73/3 58/74/3 57/75/3
f 37/73/3 38/76/3 58/74/3
s 20
f 53/77/3 56/78/3 54/79/3
f 53/77/3 55/80/3 56/78/3
s 21
f 55/81/2 49/82/2 51/83/2
f 55/81/2 53/84/2 49/82/2
s 22
f 54/85/1 52/86/1 50/87/1
f 54/85/1 56/88/1 52/86/1
s 23
f 40/89/5 57/90/5 60/91/5
f 40/89/5 37/92/5 57/90/5
s 24
f 83/93/4 62/94/4 63/95/4
f 83/93/4 82/96/4 62/94/4
s 25
f 69/97/3 72/98/3 70/99/3
f 69/97/3 71/100/3 72/98/3
s 26
f 71/101/2 65/102/2 67/103/2
f 71/101/2 69/104/2 65/102/2
s 27
f 70/105/1 68/106/1 66/107/1
f 70/105/1 72/108/1 68/106/1
s 28
f 61/109/3 82/110/3 81/111/3
f 61/109/3 62/112/3 82/110/3
s 29
f 77/113/3 80/114/3 78/115/3
f 77/113/3 79/116/3 80/114/3
s 30
f 79/117/2 73/118/2 75/119/2
f 79/117/2 77/120/2 73/118/2
s 31
f 78/121/1 76/122/1 74/123/1
f 78/121/1 80/124/1 76/122/1
s 32
f 64/125/5 81/126/5 84/127/5
f 64/125/5 61/128/5 81/126/5
s 33
f 107/129/4 86/130/4 87/131/4
f 107/129/4 106/132/4 86/130/4
s 34
f 93/133/3 96/134/3 94/135/3
f 93/133/3 95/136/3 96/134/3
s 35
f 95/137/2 89/138/2 91/139/2
f 95/137/2 93/140/2 89/138/2
s 36
f 94/141/1 92/142/1 90/143/1
f 94/141/1 96/144/1 92/142/1
s 37
f 85/145/3 106/146/3 105/147/3
f 85/145/3 86/148/3 106/146/3
s 38
f 101/149/3 104/150/3 102/151/3
f 101/149/3 103/152/3 104/150/3
s 39
f 103/153/2 97/154/2 99/155/2
f 103/153/2 101/156/2 97/154/2
s 40
f 102/157/1 100/158/1 98/159/1
f 102/157/1 104/160/1 100/158/1
s 41
f 88/161/5 105/162/5 108/163/5
f 88/161/5 85/164/5 105/162/5
s 42
f 127/165/4 145/166/4 148/167/4
f 127/165/4 126/168/4 145/166/4
s 43
f 113/169/3 116/170/3 114/171/3
f 113/169/3 115/172/3 116/170/3
s 44
f 115/173/2 109/174/2 111/175/2
f 115/173/2 113/176/2 109/174/2
s 45
f 114/177/1 112/178/1 110/179/1
f 114/177/1 116/180/1 112/178/1
s 46
f 125/181/3 145/182/3 126/183/3
f 129/184/3 131/185/3 130/186/3
f 133/187/3 145/182/3 146/188/3
f 125/181/3 146/188/3 145/182/3
f 129/184/3 133/187/3 131/185/3
f 133/187/3 129/184/3 145/182/3
s 47
f 121/189/3 124/190/3 122/191/3
f 121/189/3 123/192/3 124/190/3
s 48
f 123/193/2 117/194/2 119/195/2
f 123/193/2 121/196/2 117/194/2
s 49
f 122/197/1 120/198/1 118/199/1
f 122/197/1 124/200/1 120/198/1
s 50
f 147/201/5 125/202/5 128/203/5
f 147/201/5 146/204/5 125/202/5
s 51
f 136/205/5 130/206/5 134/207/5
f 136/205/5 129/208/5 130/206/5
s 52
f 132/209/4 133/210/4 135/211/4
f 132/209/4 131/212/4 133/210/4
s 53
f 132/213/1 130/214/1 131/215/1
f 132/213/1 134/216/1 130/214/1
s 54
f 137/217/3 140/218/3 138/219/3
f 137/217/3 139/220/3 140/218/3
s 55
f 144/221/6 141/222/6 142/223/6
f 144/221/6 143/224/6 141/222/6
s 56
f 142/225/2 137/226/2 138/227/2
f 142/225/2 141/228/2 137/226/2
s 57
f 141/229/4 139/230/4 137/231/4
f 141/229/4 143/232/4 139/230/4
s 58
f 143/233/1 140/234/1 139/235/1
f 143/233/1 144/236/1 140/234/1
s 59
f 144/237/5 138/238/5 140/239/5
f 144/237/5 142/240/5 138/238/5
s 60
f 133/241/2 147/242/2 135/243/2
f 133/241/2 146/244/2 147/242/2
s 61
f 136/245/1 145/246/1 129/247/1
f 136/245/1 148/248/1 145/246/1
s 62
f 126/249/1 128/250/1 125/251/1
f 126/249/1 127/252/1 128/250/1
